<?xml version="1.0" standalone="no"?>
<svg xmlns="http://www.w3.org/2000/svg" viewBox="0 0 266.888 29" width="266.888" height="29"><g fill="#7c4dff" color="#7c4dff" transform="translate(0, 0) scale(0.5686275)"><svg width="50.0" height="51.0" x="0.0" y="0.0" viewBox="0 0 50 51"><path fill="currentColor" fill-rule="evenodd" d="M48.937 15.444c-.196-.645-2.207-.937-5.433-.556a7.257 7.257 0 0 1 1.218 4.028c2.897-1.469 4.41-2.828 4.215-3.472m-18.63 5.633a7.19 7.19 0 0 1-.318-2.102c-2.862 1.437-4.416 2.808-4.215 3.472.202.665 2.207.937 5.433.556a7.155 7.155 0 0 1-.9-1.926m19.637-5.938c.454 1.501-1.901 3.346-5.323 4.973a7.364 7.364 0 0 1-12.668 3.83c-3.75.54-6.732.31-7.186-1.19-.453-1.5 1.901-3.345 5.323-4.972a7.363 7.363 0 0 1 12.668-3.831c3.75-.54 6.732-.31 7.186 1.19m-21.016 22.05a8.418 8.418 0 0 0-13.14-.6c1.38.242 2.714.698 3.956 1.347 2.493 1.273 5.996.526 9.184-.747M22.1 50.509a8.416 8.416 0 0 0 7.586-4.777c-3.767-.053-9.29 1.536-12.972 2.83a8.417 8.417 0 0 0 5.386 1.946m7.365-12.415a18.561 18.561 0 0 1-6.712 1.547 7.881 7.881 0 0 1-3.514-.705 11.571 11.571 0 0 0-4.209-1.326 8.351 8.351 0 0 0-1.347 4.482h4.735a.526.526 0 1 1 0 1.053h-4.66a8.418 8.418 0 0 0 2.103 4.597c3.157-1.136 9.764-3.25 14.225-3.04.284-.841.429-1.722.431-2.61a8.416 8.416 0 0 0-1.052-3.998M10.054.513l2.104 4.366a.906.906 0 0 0 .684.494l4.818.705a.905.905 0 0 1 .505 1.536l-3.43 3.399a.905.905 0 0 0-.262.8l.83 4.807a.904.904 0 0 1-1.314.947l-4.314-2.272a.915.915 0 0 0-.842 0L4.52 17.567a.894.894 0 0 1-1.357-.947l.82-4.808a.905.905 0 0 0-.252-.8L.28 7.615a.895.895 0 0 1 .494-1.536l4.83-.705a.86.86 0 0 0 .715-.494L8.423.513a.905.905 0 0 1 1.63 0"></path></svg></g><line x1="40.432" y1="1" x2="40.432" y2="28" stroke="#130211" stroke-linecap="round"></line><path fill="#130211" fill-rule="nonzero" d="M5.14 17.93Q3.60 17.93 2.20 17.48Q0.79 17.04 0 16.37L0 16.37L0.77 15.02Q1.56 15.65 2.76 16.04Q3.96 16.44 5.26 16.44L5.26 16.44Q6.98 16.44 7.81 15.90Q8.64 15.36 8.64 14.38L8.64 14.38Q8.64 13.68 8.18 13.28Q7.73 12.89 7.03 12.68Q6.34 12.48 5.18 12.29L5.18 12.29Q3.65 12 2.71 11.70Q1.78 11.40 1.12 10.68Q0.46 9.96 0.46 8.69L0.46 8.69Q0.46 7.10 1.78 6.10Q3.10 5.09 5.45 5.09L5.45 5.09Q6.67 5.09 7.90 5.41Q9.12 5.74 9.91 6.26L9.91 6.26L9.17 7.63Q7.61 6.55 5.45 6.55L5.45 6.55Q3.82 6.55 2.99 7.13Q2.16 7.70 2.16 8.64L2.16 8.64Q2.16 9.36 2.63 9.79Q3.10 10.22 3.79 10.43Q4.49 10.63 5.71 10.85L5.71 10.85Q7.22 11.14 8.14 11.42Q9.05 11.71 9.70 12.41Q10.34 13.10 10.34 14.33L10.34 14.33Q10.34 15.98 8.96 16.96Q7.58 17.93 5.14 17.93L5.14 17.93ZM18.89 16.42Q20.06 16.42 21.06 16.00Q22.06 15.58 22.75 14.76L22.75 14.76L23.71 15.86Q22.87 16.87 21.62 17.40Q20.38 17.93 18.86 17.93L18.86 17.93Q16.92 17.93 15.41 17.10Q13.90 16.27 13.06 14.81Q12.22 13.34 12.22 11.50L12.22 11.50Q12.22 9.65 13.02 8.18Q13.82 6.72 15.24 5.90Q16.66 5.09 18.46 5.09L18.46 5.09Q20.14 5.09 21.49 5.86Q22.85 6.62 23.65 7.99Q24.46 9.36 24.50 11.11L24.50 11.11L14.14 13.13Q14.62 14.66 15.88 15.54Q17.14 16.42 18.89 16.42L18.89 16.42ZM18.46 6.55Q17.14 6.55 16.09 7.16Q15.05 7.78 14.46 8.87Q13.87 9.96 13.87 11.38L13.87 11.38Q13.87 11.74 13.90 11.90L13.90 11.90L22.80 10.18Q22.51 8.59 21.34 7.57Q20.16 6.55 18.46 6.55L18.46 6.55ZM37.80 5.18L39.50 5.18L39.50 17.81L37.87 17.81L37.87 15.31Q37.10 16.58 35.84 17.26Q34.58 17.93 33 17.93L33 17.93Q31.22 17.93 29.78 17.11Q28.34 16.30 27.53 14.83Q26.71 13.37 26.71 11.50L26.71 11.50Q26.71 9.62 27.53 8.16Q28.34 6.70 29.78 5.89Q31.22 5.09 33 5.09L33 5.09Q34.54 5.09 35.77 5.72Q37.01 6.36 37.80 7.58L37.80 7.58L37.80 5.18ZM33.14 16.42Q34.46 16.42 35.53 15.80Q36.60 15.19 37.21 14.06Q37.82 12.94 37.82 11.50L37.82 11.50Q37.82 10.06 37.21 8.93Q36.60 7.80 35.53 7.19Q34.46 6.58 33.14 6.58L33.14 6.58Q31.80 6.58 30.73 7.19Q29.66 7.80 29.05 8.93Q28.44 10.06 28.44 11.50L28.44 11.50Q28.44 12.94 29.05 14.06Q29.66 15.19 30.73 15.80Q31.80 16.42 33.14 16.42L33.14 16.42ZM45.89 7.66Q46.49 6.38 47.68 5.74Q48.86 5.09 50.62 5.09L50.62 5.09L50.62 6.74L50.21 6.72Q48.22 6.72 47.09 7.94Q45.96 9.17 45.96 11.38L45.96 11.38L45.96 17.81L44.26 17.81L44.26 5.18L45.89 5.18L45.89 7.66ZM58.80 17.93Q56.93 17.93 55.45 17.11Q53.98 16.30 53.14 14.82Q52.30 13.34 52.30 11.50L52.30 11.50Q52.30 9.65 53.14 8.18Q53.98 6.72 55.45 5.90Q56.93 5.09 58.80 5.09L58.80 5.09Q60.43 5.09 61.72 5.72Q63.00 6.36 63.74 7.58L63.74 7.58L62.47 8.45Q61.85 7.51 60.89 7.04Q59.93 6.58 58.80 6.58L58.80 6.58Q57.43 6.58 56.34 7.19Q55.25 7.80 54.64 8.93Q54.02 10.06 54.02 11.50L54.02 11.50Q54.02 12.96 54.64 14.08Q55.25 15.19 56.34 15.80Q57.43 16.42 58.80 16.42L58.80 16.42Q59.93 16.42 60.89 15.96Q61.85 15.50 62.47 14.57L62.47 14.57L63.74 15.43Q63.00 16.66 61.70 17.29Q60.41 17.93 58.80 17.93L58.80 17.93ZM73.32 5.09Q75.70 5.09 77.10 6.47Q78.50 7.85 78.50 10.49L78.50 10.49L78.50 17.81L76.80 17.81L76.80 10.66Q76.80 8.69 75.82 7.66Q74.83 6.62 73.01 6.62L73.01 6.62Q70.97 6.62 69.78 7.84Q68.59 9.05 68.59 11.18L68.59 11.18L68.59 17.81L66.89 17.81L66.89 0L68.59 0L68.59 7.39Q69.29 6.29 70.51 5.69Q71.74 5.09 73.32 5.09L73.32 5.09ZM94.82 16.42Q96.00 16.42 97.00 16.00Q97.99 15.58 98.69 14.76L98.69 14.76L99.65 15.86Q98.81 16.87 97.56 17.40Q96.31 17.93 94.80 17.93L94.80 17.93Q92.86 17.93 91.34 17.10Q89.83 16.27 88.99 14.81Q88.15 13.34 88.15 11.50L88.15 11.50Q88.15 9.65 88.96 8.18Q89.76 6.72 91.18 5.90Q92.59 5.09 94.39 5.09L94.39 5.09Q96.07 5.09 97.43 5.86Q98.78 6.62 99.59 7.99Q100.39 9.36 100.44 11.11L100.44 11.11L90.07 13.13Q90.55 14.66 91.81 15.54Q93.07 16.42 94.82 16.42L94.82 16.42ZM94.39 6.55Q93.07 6.55 92.03 7.16Q90.98 7.78 90.40 8.87Q89.81 9.96 89.81 11.38L89.81 11.38Q89.81 11.74 89.83 11.90L89.83 11.90L98.74 10.18Q98.45 8.59 97.27 7.57Q96.10 6.55 94.39 6.55L94.39 6.55ZM110.35 5.09Q112.73 5.09 114.13 6.47Q115.54 7.85 115.54 10.49L115.54 10.49L115.54 17.81L113.83 17.81L113.83 10.66Q113.83 8.69 112.85 7.66Q111.86 6.62 110.04 6.62L110.04 6.62Q108.00 6.62 106.81 7.84Q105.62 9.05 105.62 11.18L105.62 11.18L105.62 17.81L103.92 17.81L103.92 5.18L105.55 5.18L105.55 7.51Q106.25 6.36 107.48 5.72Q108.72 5.09 110.35 5.09L110.35 5.09ZM130.27 5.18L131.90 5.18L131.90 16.27Q131.90 19.49 130.33 21.04Q128.76 22.58 125.59 22.58L125.59 22.58Q123.84 22.58 122.27 22.07Q120.70 21.55 119.71 20.64L119.71 20.64L120.58 19.34Q121.49 20.16 122.80 20.62Q124.10 21.07 125.54 21.07L125.54 21.07Q127.94 21.07 129.07 19.96Q130.20 18.84 130.20 16.49L130.20 16.49L130.20 14.88Q129.41 16.08 128.12 16.70Q126.84 17.33 125.28 17.33L125.28 17.33Q123.50 17.33 122.05 16.55Q120.60 15.77 119.77 14.36Q118.94 12.96 118.94 11.18L118.94 11.18Q118.94 9.41 119.77 8.02Q120.60 6.62 122.04 5.86Q123.48 5.09 125.28 5.09L125.28 5.09Q126.89 5.09 128.18 5.74Q129.48 6.38 130.27 7.61L130.27 7.61L130.27 5.18ZM125.45 15.82Q126.82 15.82 127.92 15.23Q129.02 14.64 129.64 13.58Q130.25 12.53 130.25 11.18L130.25 11.18Q130.25 9.84 129.64 8.80Q129.02 7.75 127.93 7.16Q126.84 6.58 125.45 6.58L125.45 6.58Q124.08 6.58 122.99 7.15Q121.90 7.73 121.28 8.78Q120.67 9.84 120.67 11.18L120.67 11.18Q120.67 12.53 121.28 13.58Q121.90 14.64 122.99 15.23Q124.08 15.82 125.45 15.82L125.45 15.82ZM136.68 17.81L136.68 5.18L138.38 5.18L138.38 17.81L136.68 17.81ZM137.54 2.42Q137.02 2.42 136.66 2.06Q136.30 1.70 136.30 1.20L136.30 1.20Q136.30 0.72 136.66 0.36Q137.02 0 137.54 0L137.54 0Q138.07 0 138.43 0.35Q138.79 0.70 138.79 1.18L138.79 1.18Q138.79 1.70 138.43 2.06Q138.07 2.42 137.54 2.42L137.54 2.42ZM149.57 5.09Q151.94 5.09 153.35 6.47Q154.75 7.85 154.75 10.49L154.75 10.49L154.75 17.81L153.05 17.81L153.05 10.66Q153.05 8.69 152.06 7.66Q151.08 6.62 149.26 6.62L149.26 6.62Q147.22 6.62 146.03 7.84Q144.84 9.05 144.84 11.18L144.84 11.18L144.84 17.81L143.14 17.81L143.14 5.18L144.77 5.18L144.77 7.51Q145.46 6.36 146.70 5.72Q147.94 5.09 149.57 5.09L149.57 5.09ZM164.83 16.42Q166.01 16.42 167.00 16.00Q168 15.58 168.70 14.76L168.70 14.76L169.66 15.86Q168.82 16.87 167.57 17.40Q166.32 17.93 164.81 17.93L164.81 17.93Q162.86 17.93 161.35 17.10Q159.84 16.27 159 14.81Q158.16 13.34 158.16 11.50L158.16 11.50Q158.16 9.65 158.96 8.18Q159.77 6.72 161.18 5.90Q162.60 5.09 164.40 5.09L164.40 5.09Q166.08 5.09 167.44 5.86Q168.79 6.62 169.60 7.99Q170.40 9.36 170.45 11.11L170.45 11.11L160.08 13.13Q160.56 14.66 161.82 15.54Q163.08 16.42 164.83 16.42L164.83 16.42ZM164.40 6.55Q163.08 6.55 162.04 7.16Q160.99 7.78 160.40 8.87Q159.82 9.96 159.82 11.38L159.82 11.38Q159.82 11.74 159.84 11.90L159.84 11.90L168.74 10.18Q168.46 8.59 167.28 7.57Q166.10 6.55 164.40 6.55L164.40 6.55ZM183.77 17.93Q182.06 17.93 181.14 16.97Q180.22 16.01 180.22 14.30L180.22 14.30L180.22 0L181.92 0L181.92 14.16Q181.92 15.29 182.45 15.88Q182.98 16.46 184.03 16.46L184.03 16.46Q184.70 16.46 185.18 16.25L185.18 16.25L185.30 17.66Q184.56 17.93 183.77 17.93L183.77 17.93ZM197.21 5.18L198.91 5.18L198.91 17.81L197.28 17.81L197.28 15.31Q196.51 16.58 195.25 17.26Q193.99 17.93 192.41 17.93L192.41 17.93Q190.63 17.93 189.19 17.11Q187.75 16.30 186.94 14.83Q186.12 13.37 186.12 11.50L186.12 11.50Q186.12 9.62 186.94 8.16Q187.75 6.70 189.19 5.89Q190.63 5.09 192.41 5.09L192.41 5.09Q193.94 5.09 195.18 5.72Q196.42 6.36 197.21 7.58L197.21 7.58L197.21 5.18ZM192.55 16.42Q193.87 16.42 194.94 15.80Q196.01 15.19 196.62 14.06Q197.23 12.94 197.23 11.50L197.23 11.50Q197.23 10.06 196.62 8.93Q196.01 7.80 194.94 7.19Q193.87 6.58 192.55 6.58L192.55 6.58Q191.21 6.58 190.14 7.19Q189.07 7.80 188.46 8.93Q187.85 10.06 187.85 11.50L187.85 11.50Q187.85 12.94 188.46 14.06Q189.07 15.19 190.14 15.80Q191.21 16.42 192.55 16.42L192.55 16.42ZM210.17 5.09Q211.94 5.09 213.38 5.89Q214.82 6.70 215.64 8.16Q216.46 9.62 216.46 11.50L216.46 11.50Q216.46 13.37 215.64 14.83Q214.82 16.30 213.38 17.11Q211.94 17.93 210.17 17.93L210.17 17.93Q208.58 17.93 207.32 17.26Q206.06 16.58 205.30 15.31L205.30 15.31L205.30 17.81L203.66 17.81L203.66 0L205.37 0L205.37 7.58Q206.16 6.36 207.40 5.72Q208.63 5.09 210.17 5.09L210.17 5.09ZM210.05 16.42Q211.37 16.42 212.45 15.80Q213.53 15.19 214.14 14.06Q214.75 12.94 214.75 11.50L214.75 11.50Q214.75 10.06 214.14 8.93Q213.53 7.80 212.45 7.19Q211.37 6.58 210.05 6.58L210.05 6.58Q208.70 6.58 207.64 7.19Q206.57 7.80 205.96 8.93Q205.34 10.06 205.34 11.50L205.34 11.50Q205.34 12.94 205.96 14.06Q206.57 15.19 207.64 15.80Q208.70 16.42 210.05 16.42L210.05 16.42Z" transform="translate(50.432, 5.596)"></path></svg>